<svg xmlns="http://www.w3.org/2000/svg" height="24" viewBox="0 -960 960 960" width="24"><path d="m611-296 53-53-146-146.217V-677h-75v212l168 169ZM480-90q-80.907 0-152.065-30.763-71.159-30.763-123.797-83.5Q151.5-257 120.75-328.087 90-399.175 90-480q0-80.907 30.763-152.065 30.763-71.159 83.5-123.797Q257-808.5 328.087-839.25 399.175-870 480-870q80.907 0 152.065 30.763 71.159 30.763 123.797 83.5Q808.5-703 839.25-631.913 870-560.825 870-480q0 80.907-30.763 152.065-30.763 71.159-83.5 123.797Q703-151.5 631.913-120.75 560.825-90 480-90Zm0-390Zm0 315q130.5 0 222.75-92.25T795-480q0-130.5-92.25-222.75T480-795q-130.5 0-222.75 92.25T165-480q0 130.5 92.25 222.75T480-165Z" fill="#E0BE38"/></svg>